# xmcd CD database file generated by Grip 3.2.0
# 
# Track frame offsets:
#       150
#       14976
#       30058
#       43684
#       69143
#       82920
#       99421
#       112169
#       128562
#       150421
#       163916
#       181083
#       193482
#       206407
#       223317
#       258896
#       270890
# 
# Disc length: 3812 seconds
# 
# Revision: 2
# Processed by: cddbd v1.5.2PL0 Copyright (c) Steve Scherf et al.
# Submitted via: Grip 3.2.0
# 
DISCID=e00ee211
DTITLE=De Randfichten - dr Holzmichel
DYEAR=1900
DGENRE=Country
TTITLE0=Halli, Hallo
TTITLE1=Lebt denn dr alte Holznichel noch...?
TTITLE2=Grüss Gott, mei Arzgebirg
TTITLE3=Steig ei, mir fahrn in de Tschechei (live)
TTITLE4=Griene Kließ un Schwammebrie
TTITLE5=Mir sei kaene Engel
TTITLE6=`s Arzgebirg im Blut
TTITLE7=De Spackfetbemm (live)
TTITLE8=Morgen ist alles vorüber
TTITLE9=Hab Dank dafür
TTITLE10=Susi
TTITLE11=Kann Staapilz find ich net
TTITLE12=Es wird schon alles wieder gut
TTITLE13=Drham is drham
TTITLE14=dr Holzmichel
TTITLE15=Bis bald, ihr Leit
TTITLE16=Lebt denn dr alte Holzmichel noch...? (Karaoke Version)
EXTD=
EXTT0=
EXTT1=
EXTT2=
EXTT3=
EXTT4=
EXTT5=
EXTT6=
EXTT7=
EXTT8=
EXTT9=
EXTT10=
EXTT11=
EXTT12=
EXTT13=
EXTT14=
EXTT15=
EXTT16=
PLAYORDER=
